<svg xmlns="http://www.w3.org/2000/svg" viewBox="0 0 1200 675">
<defs>
  <linearGradient id="g" x1="0.15" y1="0" x2="0.65" y2="1"><stop offset="0" stop-color="#2a4bd0"/><stop offset="0.45" stop-color="#6a27c9"/><stop offset="1" stop-color="#a01ca0"/></linearGradient>
  <radialGradient id="bg" cx="50%" cy="40%" r="75%"><stop offset="0" stop-color="#221b14"/><stop offset="1" stop-color="#0d0a06"/></radialGradient>
  <filter id="ds" x="-30%" y="-30%" width="160%" height="160%"><feDropShadow dx="0" dy="6" stdDeviation="8" flood-color="#000" flood-opacity="0.5"/></filter>
</defs>
<rect width="1200" height="675" rx="16" fill="url(#bg)"/>
<g stroke="#c9a45a" stroke-opacity="0.18" fill="none" stroke-width="3" stroke-linecap="round"><path d="M380 360 A 240 240 0 0 1 820 300"/><path d="M420 470 A 220 220 0 0 0 800 470"/></g>
<g transform="translate(300,210) rotate(-12) scale(1.55) translate(-50,-50)" filter="url(#ds)">
  <polygon points="50.0,6.0 79.0,24.0 88.0,58.0 67.0,86.0 33.0,86.0 12.0,58.0 21.0,24.0" fill="url(#g)"/>
  <clipPath id="c0"><polygon points="50.0,6.0 79.0,24.0 88.0,58.0 67.0,86.0 33.0,86.0 12.0,58.0 21.0,24.0"/></clipPath>
  <g clip-path="url(#c0)"><circle cx="35.2" cy="20.7" r="1.09" fill="#fff" opacity="0.28"/><circle cx="53.0" cy="38.7" r="0.55" fill="#fff" opacity="0.48"/><circle cx="11.1" cy="44.4" r="0.56" fill="#fff" opacity="0.29"/><circle cx="43.7" cy="77.5" r="0.61" fill="#fff" opacity="0.35"/><circle cx="60.7" cy="87.6" r="1.02" fill="#fff" opacity="0.43"/><circle cx="90.0" cy="11.9" r="1.27" fill="#fff" opacity="0.38"/><circle cx="20.1" cy="17.9" r="0.78" fill="#fff" opacity="0.62"/><circle cx="23.2" cy="56.9" r="1.08" fill="#fff" opacity="0.42"/><circle cx="54.0" cy="13.3" r="0.55" fill="#fff" opacity="0.34"/><circle cx="65.2" cy="43.9" r="0.78" fill="#fff" opacity="0.51"/><circle cx="46.1" cy="33.2" r="1.21" fill="#fff" opacity="0.56"/><circle cx="28.5" cy="56.3" r="0.97" fill="#fff" opacity="0.64"/><circle cx="69.3" cy="32.2" r="1.38" fill="#fff" opacity="0.30"/><circle cx="43.1" cy="71.6" r="0.64" fill="#fff" opacity="0.47"/><line x1="50.0" y1="48.9" x2="50.0" y2="6.0" stroke="#ffffff" stroke-opacity="0.18" stroke-width="0.8"/><line x1="50.0" y1="48.9" x2="79.0" y2="24.0" stroke="#ffffff" stroke-opacity="0.18" stroke-width="0.8"/><line x1="50.0" y1="48.9" x2="88.0" y2="58.0" stroke="#ffffff" stroke-opacity="0.18" stroke-width="0.8"/><line x1="50.0" y1="48.9" x2="67.0" y2="86.0" stroke="#ffffff" stroke-opacity="0.18" stroke-width="0.8"/><line x1="50.0" y1="48.9" x2="33.0" y2="86.0" stroke="#ffffff" stroke-opacity="0.18" stroke-width="0.8"/><line x1="50.0" y1="48.9" x2="12.0" y2="58.0" stroke="#ffffff" stroke-opacity="0.18" stroke-width="0.8"/><line x1="50.0" y1="48.9" x2="21.0" y2="24.0" stroke="#ffffff" stroke-opacity="0.18" stroke-width="0.8"/></g>
  <polygon points="50.0,27.4 64.5,36.4 69.0,53.4 58.5,67.4 41.5,67.4 31.0,53.4 35.5,36.4" fill="#000" fill-opacity="0.18"/>
  <text x="50.0" y="55.9" text-anchor="middle" font-family="Cinzel, Georgia, serif" font-weight="700" font-size="30" fill="#ecd089" stroke="#4a3310" stroke-width="0.8" paint-order="stroke">12</text>
</g><g transform="translate(905,210) rotate(14) scale(1.5) translate(-50,-50)" filter="url(#ds)">
  <polygon points="50.0,8.0 90.0,50.0 50.0,92.0 10.0,50.0" fill="url(#g)"/>
  <clipPath id="c1"><polygon points="50.0,8.0 90.0,50.0 50.0,92.0 10.0,50.0"/></clipPath>
  <g clip-path="url(#c1)"><circle cx="11.3" cy="64.1" r="1.19" fill="#fff" opacity="0.51"/><circle cx="81.5" cy="34.4" r="1.13" fill="#fff" opacity="0.52"/><circle cx="56.7" cy="46.3" r="1.26" fill="#fff" opacity="0.68"/><circle cx="47.8" cy="63.8" r="0.55" fill="#fff" opacity="0.57"/><circle cx="62.4" cy="91.4" r="1.24" fill="#fff" opacity="0.38"/><circle cx="40.4" cy="64.2" r="0.52" fill="#fff" opacity="0.46"/><circle cx="22.1" cy="17.8" r="0.55" fill="#fff" opacity="0.60"/><circle cx="18.9" cy="28.8" r="0.85" fill="#fff" opacity="0.64"/><circle cx="14.8" cy="45.7" r="0.99" fill="#fff" opacity="0.65"/><circle cx="76.8" cy="80.6" r="0.75" fill="#fff" opacity="0.44"/><circle cx="38.1" cy="82.3" r="1.36" fill="#fff" opacity="0.32"/><circle cx="22.8" cy="27.5" r="0.71" fill="#fff" opacity="0.47"/><circle cx="57.5" cy="30.1" r="0.50" fill="#fff" opacity="0.44"/><circle cx="39.0" cy="55.6" r="1.36" fill="#fff" opacity="0.56"/><line x1="50.0" y1="50.0" x2="50.0" y2="8.0" stroke="#ffffff" stroke-opacity="0.18" stroke-width="0.8"/><line x1="50.0" y1="50.0" x2="90.0" y2="50.0" stroke="#ffffff" stroke-opacity="0.18" stroke-width="0.8"/><line x1="50.0" y1="50.0" x2="50.0" y2="92.0" stroke="#ffffff" stroke-opacity="0.18" stroke-width="0.8"/><line x1="50.0" y1="50.0" x2="10.0" y2="50.0" stroke="#ffffff" stroke-opacity="0.18" stroke-width="0.8"/></g>
  <polygon points="50.0,29.0 70.0,50.0 50.0,71.0 30.0,50.0" fill="#000" fill-opacity="0.18"/>
  <text x="50.0" y="57.0" text-anchor="middle" font-family="Cinzel, Georgia, serif" font-weight="700" font-size="30" fill="#ecd089" stroke="#4a3310" stroke-width="0.8" paint-order="stroke">8</text>
</g><g transform="translate(600,330) rotate(-6) scale(2.7) translate(-50,-50)" filter="url(#ds)">
  <polygon points="50.0,6.0 86.0,27.0 86.0,73.0 50.0,94.0 14.0,73.0 14.0,27.0" fill="url(#g)"/>
  <clipPath id="c2"><polygon points="50.0,6.0 86.0,27.0 86.0,73.0 50.0,94.0 14.0,73.0 14.0,27.0"/></clipPath>
  <g clip-path="url(#c2)"><circle cx="51.3" cy="59.9" r="1.11" fill="#fff" opacity="0.27"/><circle cx="83.6" cy="73.5" r="1.29" fill="#fff" opacity="0.61"/><circle cx="41.0" cy="41.5" r="0.59" fill="#fff" opacity="0.54"/><circle cx="13.2" cy="13.7" r="0.69" fill="#fff" opacity="0.32"/><circle cx="36.6" cy="12.4" r="0.50" fill="#fff" opacity="0.32"/><circle cx="16.5" cy="38.5" r="0.52" fill="#fff" opacity="0.64"/><circle cx="59.6" cy="20.5" r="0.73" fill="#fff" opacity="0.41"/><circle cx="38.6" cy="18.3" r="1.26" fill="#fff" opacity="0.70"/><circle cx="47.1" cy="48.6" r="0.58" fill="#fff" opacity="0.30"/><circle cx="36.8" cy="30.2" r="1.25" fill="#fff" opacity="0.32"/><circle cx="9.9" cy="87.9" r="0.98" fill="#fff" opacity="0.32"/><circle cx="53.6" cy="10.3" r="0.98" fill="#fff" opacity="0.69"/><circle cx="80.5" cy="66.5" r="0.74" fill="#fff" opacity="0.42"/><circle cx="22.0" cy="72.8" r="0.98" fill="#fff" opacity="0.60"/><line x1="50.0" y1="50.0" x2="50.0" y2="6.0" stroke="#ffffff" stroke-opacity="0.18" stroke-width="0.8"/><line x1="50.0" y1="50.0" x2="86.0" y2="27.0" stroke="#ffffff" stroke-opacity="0.18" stroke-width="0.8"/><line x1="50.0" y1="50.0" x2="86.0" y2="73.0" stroke="#ffffff" stroke-opacity="0.18" stroke-width="0.8"/><line x1="50.0" y1="50.0" x2="50.0" y2="94.0" stroke="#ffffff" stroke-opacity="0.18" stroke-width="0.8"/><line x1="50.0" y1="50.0" x2="14.0" y2="73.0" stroke="#ffffff" stroke-opacity="0.18" stroke-width="0.8"/><line x1="50.0" y1="50.0" x2="14.0" y2="27.0" stroke="#ffffff" stroke-opacity="0.18" stroke-width="0.8"/></g>
  <polygon points="50.0,28.0 68.0,38.5 68.0,61.5 50.0,72.0 32.0,61.5 32.0,38.5" fill="#000" fill-opacity="0.18"/>
  <text x="50.0" y="57.0" text-anchor="middle" font-family="Cinzel, Georgia, serif" font-weight="700" font-size="30" fill="#ecd089" stroke="#4a3310" stroke-width="0.8" paint-order="stroke">20</text>
</g><g transform="translate(300,470) rotate(10) scale(1.45) translate(-50,-50)" filter="url(#ds)">
  <polygon points="50.0,8.0 84.0,40.0 70.0,90.0 30.0,90.0 16.0,40.0" fill="url(#g)"/>
  <clipPath id="c3"><polygon points="50.0,8.0 84.0,40.0 70.0,90.0 30.0,90.0 16.0,40.0"/></clipPath>
  <g clip-path="url(#c3)"><circle cx="35.7" cy="26.7" r="1.23" fill="#fff" opacity="0.69"/><circle cx="79.6" cy="75.7" r="1.24" fill="#fff" opacity="0.58"/><circle cx="27.0" cy="51.5" r="0.82" fill="#fff" opacity="0.26"/><circle cx="10.3" cy="31.5" r="0.73" fill="#fff" opacity="0.56"/><circle cx="88.3" cy="45.6" r="1.34" fill="#fff" opacity="0.69"/><circle cx="88.2" cy="38.6" r="0.70" fill="#fff" opacity="0.35"/><circle cx="24.5" cy="25.2" r="1.06" fill="#fff" opacity="0.66"/><circle cx="78.6" cy="48.3" r="1.09" fill="#fff" opacity="0.61"/><circle cx="15.1" cy="63.5" r="1.32" fill="#fff" opacity="0.60"/><circle cx="71.0" cy="48.2" r="0.66" fill="#fff" opacity="0.61"/><circle cx="35.9" cy="75.3" r="1.37" fill="#fff" opacity="0.43"/><circle cx="41.7" cy="87.5" r="1.15" fill="#fff" opacity="0.33"/><circle cx="18.7" cy="20.7" r="1.31" fill="#fff" opacity="0.61"/><circle cx="20.3" cy="77.4" r="1.38" fill="#fff" opacity="0.55"/><line x1="50.0" y1="53.6" x2="50.0" y2="8.0" stroke="#ffffff" stroke-opacity="0.18" stroke-width="0.8"/><line x1="50.0" y1="53.6" x2="84.0" y2="40.0" stroke="#ffffff" stroke-opacity="0.18" stroke-width="0.8"/><line x1="50.0" y1="53.6" x2="70.0" y2="90.0" stroke="#ffffff" stroke-opacity="0.18" stroke-width="0.8"/><line x1="50.0" y1="53.6" x2="30.0" y2="90.0" stroke="#ffffff" stroke-opacity="0.18" stroke-width="0.8"/><line x1="50.0" y1="53.6" x2="16.0" y2="40.0" stroke="#ffffff" stroke-opacity="0.18" stroke-width="0.8"/></g>
  <polygon points="50.0,30.8 67.0,46.8 60.0,71.8 40.0,71.8 33.0,46.8" fill="#000" fill-opacity="0.18"/>
  <text x="50.0" y="60.6" text-anchor="middle" font-family="Cinzel, Georgia, serif" font-weight="700" font-size="30" fill="#ecd089" stroke="#4a3310" stroke-width="0.8" paint-order="stroke">7</text>
</g><g transform="translate(905,470) rotate(-16) scale(1.5) translate(-50,-50)" filter="url(#ds)">
  <polygon points="18.0,18.0 82.0,18.0 82.0,82.0 18.0,82.0" fill="url(#g)"/>
  <clipPath id="c4"><polygon points="18.0,18.0 82.0,18.0 82.0,82.0 18.0,82.0"/></clipPath>
  <g clip-path="url(#c4)"><circle cx="37.4" cy="54.1" r="0.62" fill="#fff" opacity="0.26"/><circle cx="89.6" cy="62.6" r="0.97" fill="#fff" opacity="0.67"/><circle cx="44.4" cy="81.2" r="1.24" fill="#fff" opacity="0.34"/><circle cx="29.2" cy="32.6" r="0.72" fill="#fff" opacity="0.51"/><circle cx="29.8" cy="43.2" r="0.62" fill="#fff" opacity="0.66"/><circle cx="37.7" cy="46.5" r="1.03" fill="#fff" opacity="0.66"/><circle cx="43.3" cy="85.1" r="0.95" fill="#fff" opacity="0.49"/><circle cx="52.0" cy="9.6" r="0.90" fill="#fff" opacity="0.33"/><circle cx="8.3" cy="75.1" r="0.66" fill="#fff" opacity="0.46"/><circle cx="68.9" cy="54.7" r="0.79" fill="#fff" opacity="0.48"/><circle cx="54.7" cy="73.9" r="0.60" fill="#fff" opacity="0.50"/><circle cx="28.9" cy="31.3" r="1.20" fill="#fff" opacity="0.48"/><circle cx="55.2" cy="71.8" r="1.32" fill="#fff" opacity="0.45"/><circle cx="59.5" cy="50.5" r="0.96" fill="#fff" opacity="0.56"/><line x1="50.0" y1="50.0" x2="18.0" y2="18.0" stroke="#ffffff" stroke-opacity="0.18" stroke-width="0.8"/><line x1="50.0" y1="50.0" x2="82.0" y2="18.0" stroke="#ffffff" stroke-opacity="0.18" stroke-width="0.8"/><line x1="50.0" y1="50.0" x2="82.0" y2="82.0" stroke="#ffffff" stroke-opacity="0.18" stroke-width="0.8"/><line x1="50.0" y1="50.0" x2="18.0" y2="82.0" stroke="#ffffff" stroke-opacity="0.18" stroke-width="0.8"/></g>
  <polygon points="34.0,34.0 66.0,34.0 66.0,66.0 34.0,66.0" fill="#000" fill-opacity="0.18"/>
  <text x="50.0" y="57.0" text-anchor="middle" font-family="Cinzel, Georgia, serif" font-weight="700" font-size="30" fill="#ecd089" stroke="#4a3310" stroke-width="0.8" paint-order="stroke">6</text>
</g><g transform="translate(600,560) rotate(8) scale(1.25) translate(-50,-50)" filter="url(#ds)">
  <polygon points="50.0,10.0 90.0,82.0 10.0,82.0" fill="url(#g)"/>
  <clipPath id="c5"><polygon points="50.0,10.0 90.0,82.0 10.0,82.0"/></clipPath>
  <g clip-path="url(#c5)"><circle cx="46.0" cy="52.8" r="0.93" fill="#fff" opacity="0.67"/><circle cx="66.7" cy="81.6" r="1.35" fill="#fff" opacity="0.37"/><circle cx="55.0" cy="87.2" r="1.26" fill="#fff" opacity="0.31"/><circle cx="18.2" cy="45.1" r="0.57" fill="#fff" opacity="0.36"/><circle cx="14.1" cy="64.2" r="1.21" fill="#fff" opacity="0.65"/><circle cx="21.0" cy="68.2" r="1.09" fill="#fff" opacity="0.31"/><circle cx="82.2" cy="89.3" r="0.70" fill="#fff" opacity="0.68"/><circle cx="41.5" cy="48.9" r="1.39" fill="#fff" opacity="0.62"/><circle cx="21.6" cy="44.2" r="0.96" fill="#fff" opacity="0.40"/><circle cx="24.4" cy="34.8" r="1.15" fill="#fff" opacity="0.26"/><circle cx="54.5" cy="45.0" r="0.52" fill="#fff" opacity="0.40"/><circle cx="60.4" cy="51.0" r="0.56" fill="#fff" opacity="0.69"/><circle cx="74.2" cy="89.6" r="0.59" fill="#fff" opacity="0.37"/><circle cx="11.3" cy="73.4" r="0.74" fill="#fff" opacity="0.31"/><line x1="50.0" y1="58.0" x2="50.0" y2="10.0" stroke="#ffffff" stroke-opacity="0.18" stroke-width="0.8"/><line x1="50.0" y1="58.0" x2="90.0" y2="82.0" stroke="#ffffff" stroke-opacity="0.18" stroke-width="0.8"/><line x1="50.0" y1="58.0" x2="10.0" y2="82.0" stroke="#ffffff" stroke-opacity="0.18" stroke-width="0.8"/></g>
  <polygon points="50.0,34.0 70.0,70.0 30.0,70.0" fill="#000" fill-opacity="0.18"/>
  <text x="50.0" y="69.0" text-anchor="middle" font-family="Cinzel, Georgia, serif" font-weight="700" font-size="26" fill="#ecd089" stroke="#4a3310" stroke-width="0.8" paint-order="stroke">4</text>
</g>
</svg>